Patient4_TMGait_0pt4_02_left_40_EMG.mot
version=1
nRows=33
nColumns=33
inDegrees=no
endheader
time	1LAddLong	2LGlutMax	3LGlutMed	4LIliopsoas	5LSemiMemb	6LBicFemLong	7LRecFem	8LVastMed	9LVastLat	10LGasMed	11LTibAnt	12lTibPost	13LPeroneusLong	14LSol	15LExtDigLong	16LFlexDigLong	17RAddLong	18RGlutMax	19RGlutMed	20RIliopsoas	21RSemiMemb	22RBicFemLong	23RRecFem	24RVastMed	25RVastLat	26RGasMed	27RTibAnt	28RTibPost	29RPeroneusLong	30RSol	31RExtDigLong	32RFlexDigLong
53.84	0.015259	-0.28854	-0.12253	0.024414	0.019531	-0.050507	-0.46463	-0.011902	-0.31372	-0.017242	0.14801	0.13245	0.045471	-0.057678	0.14404	-0.63965	0.04364	0.1181	0.11475	0.14694	0.00824	0.28793	0.26535	-0.008087	0.060883	0.026245	0.44586	-0.002441	0.085144	-0.29999	-0.001678	-0.001068
53.841	0.072784	-0.27451	-0.068512	0.006256	-0.029449	-0.18433	-0.569	-0.048065	-0.084534	-0.018005	0.22934	0.012207	0.048676	-0.12436	0.20432	0.001221	0.10284	0.13809	0.15762	0.068054	-0.00473	0.2565	0.24994	-0.039978	0.048676	0.015411	0.55466	-0.011292	0.021362	-0.2478	-0.004883	-0.009155
53.842	-0.064392	-0.23071	0.046082	0.010071	-0.034027	-0.15411	-0.7756	-0.05188	0.33463	-0.068665	0.18127	0.085449	0.051727	-0.19196	0.26764	0.37003	0.10773	0.14847	0.26276	0.015717	-0.009918	0.20096	0.2623	-0.048981	0.049133	-0.012665	0.085449	-0.006409	0.002289	0.05722	-0.001221	-0.012665
53.843	-0.029602	-0.15167	0.04364	0.012512	0.01358	-0.45364	-0.79819	-0.029755	0.44784	-0.023499	-0.074921	-0.10086	0.059967	-0.08606	0.31342	-0.043945	0.080414	0.089722	0.097809	0.014648	-0.037842	0.15411	0.23621	-0.054474	0.04837	-0.011292	0.11658	-0.008087	-0.014496	0.30792	-0.001526	-0.018768
53.844	0.000153	0.032196	0.096436	0.035553	0.056458	-0.60989	-0.63751	0.01236	0.26276	0.010376	-0.15945	-0.093536	0.091095	0.029297	0.23422	-0.15259	0.10696	0.057831	0.050201	0.08255	-0.004578	0.078125	0.31052	-0.075226	0.024261	-0.00473	0.020752	-0.010223	0.054932	0.31616	-0.001831	-0.00946
53.845	-0.003204	0.18936	0.002747	0.023804	0.009003	-0.31067	-0.55145	-0.000458	-0.005951	-0.027466	-0.10117	0.015259	0.047455	-0.059357	0.20371	1.0307	0.076447	0.006104	0.16739	0.14435	-0.008087	0.02182	0.32333	-0.11963	0.034485	-0.011597	-0.066528	-0.007782	0.03006	0.21439	0.005951	-0.01236
53.846	0.00824	0.2272	-0.10498	0.003967	-0.016327	-0.18356	-0.46158	-0.003204	-0.12192	-0.11597	-0.10117	-0.042419	-0.010223	-0.13367	0.24246	0.44754	0.059967	0.035706	0.30731	0.18555	-0.083466	-0.055542	0.31021	-0.13596	0.036469	-0.001678	-0.17502	-0.007477	0.058289	0.22766	-0.00061	-0.006409
53.847	0.010681	0.19043	-0.10574	-0.01236	-0.018921	-0.10025	-0.45685	-0.046844	-0.2063	-0.2005	-0.059814	-0.028534	-0.00946	-0.31372	0.29739	0.14145	0.020142	0.013275	0.46219	0.17654	-0.10971	-0.00351	0.28366	-0.1384	0.024261	-0.003052	0.036011	-0.003204	0.08667	0.30792	0.001373	-0.011139
53.848	-0.000458	0.30716	0.014496	0.000916	-0.046692	-0.024414	-0.40039	-0.037079	-0.27313	0.012054	-0.048828	-0.016937	0.039215	-0.60257	0.29404	-0.05127	-0.003204	0.039368	0.39261	0.14877	-0.089722	0.081482	0.28595	-0.18936	0.017242	-0.00473	0.22903	-0.002747	0.037689	0.23285	-0.000153	-0.011292
53.849	0.003052	0.36194	0.16785	-0.00061	-0.051727	-0.020447	-0.34683	-0.039215	-0.17517	0.29053	0.011292	-0.004883	0.13123	-0.44083	0.18601	-0.2919	-0.019226	0.062256	0.12283	0.13107	-0.032654	0.10727	0.25757	-0.2063	0.007782	-0.010529	0.6044	-0.008087	-0.12619	0.13412	-0.001068	-0.002747
53.85	0.00473	0.34531	0.25848	-0.009308	-0.021515	-0.094452	-0.30884	-0.028992	-0.11963	0.15839	0.052795	-0.007172	0.11169	-0.12512	0.03479	-0.11612	-0.077972	0.066681	0.21698	0.11688	-0.012665	0.08194	0.27924	-0.20371	0.010376	-0.007172	0.85678	0.00061	-0.16556	0.05661	0.001068	-0.005188
53.851	0.002899	0.26825	0.15717	0.008087	-0.026245	-0.061798	-0.28488	-0.019989	-0.13062	0.20783	0.081024	0.003357	-0.041046	0.019073	0.014343	0.18417	-0.14114	0.022736	0.35355	0.13657	0.010986	0.08667	0.30197	-0.23544	0.007324	0	-0.078278	-0.003967	-0.043182	-0.042877	0.00061	0.007324
53.852	0.001678	0.32166	0.27191	0.006256	-0.034637	-0.028534	-0.3714	-0.002594	-0.11276	0.26581	0.010834	0.072937	-0.072327	0.034943	-0.015411	-0.13229	-0.14572	-0.006409	0.3714	0.1088	0.015259	-0.02655	0.32867	-0.27451	-0.001831	-0.001831	-0.48752	-0.010681	-0.10071	0.051727	-0.006561	0.000458
53.853	0.009766	0.39169	0.30945	0.009613	-0.02121	-0.036163	-0.50964	0.019379	0.22522	0.005951	-0.08255	0.04776	-0.050812	0.16602	-0.090027	-0.06073	-0.17059	-0.092621	0.14847	0.031586	0.025787	-0.091858	0.34515	-0.26504	-0.01709	-0.014343	-0.31418	-0.003815	-0.24857	0.063019	-0.000916	-0.00946
53.854	0.006256	0.30502	0.1207	-0.003967	-0.021362	-0.014954	-0.59982	0.021667	0.3093	-0.038605	-0.054779	0.005646	-0.094757	0.26657	-0.11688	-0.019684	-0.19455	-0.12329	0.22064	-0.072021	0.012054	0.011292	0.3688	-0.24353	-0.007935	0.00061	0.065765	-0.007477	-0.21591	0.006256	0.001831	-0.012665
53.855	0.014343	0.27481	-0.005646	-0.012054	-0.020599	0.009308	-0.65338	0.016785	0.29984	-0.041199	-0.022736	0.040131	-0.046844	0.26901	-0.10895	-0.3093	-0.15427	-0.14267	0.31281	-0.11032	0.00473	0.032349	0.40436	-0.22568	-0.015869	0.000458	-0.00351	-0.005798	-0.078888	0.06012	-0.002899	-0.010376
53.856	0.010681	0.15671	-0.091553	0.007019	-0.018616	0.058136	-0.63843	0.019989	0.31281	-0.10254	0.021515	0.006714	-0.014343	0.25162	-0.068054	-0.41611	-0.11688	-0.16876	0.27115	-0.10269	-0.04837	0.048828	0.40009	-0.1445	-0.00473	-0.008545	-0.34164	-0.001068	0.012207	0.074158	-0.001373	-0.000305
53.857	0.009155	0.17746	-0.078735	0.009918	-0.010681	0.14099	-0.64545	0.019684	0.28259	-0.051575	0.052032	-0.087128	-0.04837	0.010529	-0.014343	0.021515	-0.05249	-0.16541	0.31647	-0.10864	-0.054932	0.020294	0.32227	-0.1326	-0.00824	-0.006256	-0.19745	-0.003357	0.030823	-0.053711	-0.002441	0.000153
53.858	0.010376	0.19424	-0.17944	0.006714	-0.015259	0.15671	-0.60165	0.025177	0.004272	-0.064087	0.10773	0.017395	-0.050507	-0.047302	0.02655	-0.3064	-0.020599	-0.17777	0.38208	-0.17014	-0.037842	-0.019836	0.31815	-0.13672	0.001526	-0.007935	-0.12177	-0.004425	-0.007019	-0.032806	0.000458	-0.00885
53.859	0.014954	0.19379	-0.28656	0.005798	-0.007172	0.159	-0.38422	0.010529	-0.36255	-0.09903	0.12878	0.000458	-0.02655	-0.082397	0.11536	-0.69794	0.029144	-0.14511	0.067291	-0.16785	-0.079803	0.022888	0.3389	-0.11047	-0.021057	-0.011444	-0.17059	-0.002594	-0.04303	-0.005798	-0.001831	-0.013733
53.86	0.00824	0.18646	-0.23941	0.007019	-0.002289	0.14252	-0.27557	-0.017548	-0.4863	-0.090179	0.13855	-0.025787	-0.07019	-0.10544	0.2124	0.34775	-0.016022	-0.14496	0.026855	-0.005951	-0.11368	0.1651	0.30075	-0.10025	-0.003357	-0.010529	0.19684	-0.006866	-0.049133	-0.054016	-0.00412	-0.014648
53.861	0.008545	0.028229	-0.26504	0.046844	0.019226	0.14908	-0.24033	-0.041046	-0.37231	-0.15945	-0.027313	0.20889	-0.002136	-0.112	0.33035	0.30533	0.071259	-0.17578	0.048676	0.13718	-0.11871	0.12131	0.2948	-0.14038	0.00824	-0.012817	0.82367	-0.005493	-0.18234	-0.12558	-0.002441	-0.01236
53.862	0.000916	0.031281	-0.055237	0.026245	-0.018005	0.13763	-0.2269	-0.036011	-0.17548	-0.17227	-0.1445	-0.13412	0.046082	0.19669	-0.072021	-0.94132	0.074768	-0.062561	0.053864	0.224	-0.065308	0.09903	0.27329	-0.076447	0.003052	-0.001373	1.0005	-0.003815	-0.17364	-0.15595	0.003052	-0.002747
53.863	0.001221	0.040588	-0.19134	0.027313	-0.0914	-0.093384	-0.25971	-0.018158	-0.079346	-0.077209	-0.006866	-0.10269	-0.11063	0.40741	0.058594	0.62531	0.039063	-0.014648	0.090179	0.20645	-0.056305	0.04715	0.26352	-0.019684	-0.009613	0.009155	0.63629	-0.005798	-0.046387	-0.12329	0.001221	0.001221
53.864	0.000153	0.075989	-0.087585	-0.001678	-0.10742	-0.16556	-0.2507	-0.014801	-0.054321	0.032501	-0.026093	-0.042419	-0.084686	0.5365	0.034027	0.81879	0.006256	0.03418	0.13763	0.03418	-0.041962	0.008698	0.21957	0.050354	-0.012207	0.005341	-0.089722	-0.001221	-0.20081	-0.17731	-0.000305	-0.006104
53.865	-0.010376	0.009155	0.028381	-0.00412	-0.095825	-0.093842	-0.23056	-0.020752	-0.028076	0.10193	-0.075836	-0.12543	0.003967	0.51651	-0.37628	-0.79086	-0.014954	-0.042114	0.33142	-0.17822	-0.023804	-0.10986	0.21423	-0.033875	-0.007935	-0.001526	-0.21637	-0.005493	-0.22553	-0.20065	-0.000916	-0.007019
53.866	0.001984	-0.002289	-0.043488	0.001068	-0.014038	-0.024414	-0.19257	-0.015869	-0.021667	0.11444	0.03067	0.013885	0.11856	0.45364	-0.15625	0.007935	0.020905	-0.062103	0.70419	-0.30609	-0.013123	-0.30823	0.21698	0.0354	-0.027008	-0.001373	-0.70175	-0.008545	-0.076141	-0.16419	0	-0.010834
53.867	0.005493	-0.080261	0	-0.015259	0.050354	-0.028992	-0.11246	-0.022583	-0.012665	0.1535	0.11887	0.039063	0.16861	0.34607	0.1445	0.16953	0.086517	-0.037231	0.76797	-0.1561	-0.030212	-0.4158	0.18021	-0.022125	-0.018158	-0.005341	0.021362	-0.003815	0.002747	-0.12283	-0.001678	-0.005951
53.868	0.006256	-0.099945	-0.24887	-0.005798	0.033875	-0.051422	-0.12558	-0.01297	-0.029602	0.25223	0.016479	0.032043	0.21408	0.22232	-0.2504	-0.077515	0.14023	-0.038452	0.29251	-0.000305	0.005188	-0.35828	0.18021	-0.078583	-0.040131	-0.014801	0.60577	-0.004578	-0.00946	-0.053101	-0.005493	-0.007324
53.869	0.009613	-0.16861	-0.40176	-0.005188	0.018616	0.009918	-0.14053	-0.011749	-0.035095	0.27542	-0.028687	0.1799	0.12054	-0.92377	-0.055389	-0.32577	0.11963	-0.12711	-0.002441	0.159	0.055084	-0.15808	0.14862	0.016632	-0.012817	-0.007935	0.58853	0.000153	-0.20142	-0.070801	-0.000916	-0.00824
53.87	0.018616	-0.21759	-0.14511	-0.000305	0.022125	0.007477	-0.24124	-0.023956	-0.009766	0.16464	-0.015106	0.39536	0.007935	-1.7033	0.55985	0.2356	0.15091	-0.14847	-0.029602	0.12878	0.04715	-0.039978	0.11215	0.05722	-0.016785	-0.001221	0.67535	-0.003052	-0.33463	-0.039063	-0.000763	-0.001678
53.871	0.014954	-0.20248	0.055084	0.001373	0.015259	-0.018158	-0.28931	-0.016632	-0.044708	0.1239	-0.048981	-0.15289	-0.19424	-1.0556	0.38483	0.51453	0.081635	-0.050354	-0.10086	0.14816	-0.000916	0.011444	0.13245	0.10407	-0.014648	-0.000153	0.58197	-0.008698	-0.2449	0.056305	0.000763	-0.002747
53.872	0.015411	-0.19455	0.2002	0.00061	0.003815	0.00946	-0.36499	0.007629	-0.030365	0.08606	0.088196	-0.20004	-0.20371	-0.48737	-0.40695	-0.47455	0.082092	-0.099182	-0.052948	0.073395	-0.022278	0.024261	0.09964	0.14175	0.005493	0.01358	-0.12573	-0.003662	0.15442	0.027771	0	-0.006866
